# xmcd CD database file
#
# Track frame offsets:
#	150
#	17797
#	31352
#	44705
#	60392
#	75767
#	89257
#	99710
#	113462
#	128815
#	144255
#	160435
#	177532
#	190987
#
# Disc length: 2753 seconds
#
# Revision: 0
# Processed by: cddbd v1.5.1PL0 Copyright (c) Steve Scherf et al.
# Submitted via: CDex 1.51
#
DISCID=b20abf0e
DTITLE=Gösta Linderholm and The Trad Brothers - Echoes Of New Orleans
DYEAR=2004
DGENRE=Jazz
TTITLE0=Just A Little While To Stay Here
TTITLE1=Jag Tänker Sätta Mej Ner Och Skriva Mig Själv Ett Mail
TTITLE2=Lastic
TTITLE3=Goin' Home
TTITLE4=Bucket's Got A Hole In It
TTITLE5=The Old Rugged Cross
TTITLE6=Perdido Street Blues
TTITLE7=I'm Going Home
TTITLE8=Ya Gotta See Baby Tonight
TTITLE9=Hiawatha Rag
TTITLE10=Där Är Mitt Hem
TTITLE11=My Journey To The Sky
TTITLE12=Papa Dip
TTITLE13=Tell Ém About Me
EXTD=YEAR: 2004
EXTT0=
EXTT1=
EXTT2=
EXTT3=
EXTT4=
EXTT5=
EXTT6=
EXTT7=
EXTT8=
EXTT9=
EXTT10=
EXTT11=
EXTT12=
EXTT13=
PLAYORDER=
